HIERARCHY
ROOT Hips
{
    OFFSET   0.000000   0.000000   0.000000
    CHANNELS 6 Xposition Yposition Zposition Zrotation Xrotation Yrotation
    JOINT Chest
    {
        OFFSET   0.000000   8.007230   0.000000
        CHANNELS 3 Zrotation Xrotation Yrotation
        JOINT Chest2
        {
            OFFSET   0.000000  22.077100   0.000000
            CHANNELS 3 Zrotation Xrotation Yrotation
            JOINT Neck
            {
                OFFSET   0.000000  23.254800   0.000000
                CHANNELS 3 Zrotation Xrotation Yrotation
                JOINT Head
                {
                    OFFSET   0.000010  14.370000   1.956600
                    CHANNELS 3 Zrotation Xrotation Yrotation
                    End Site
                    {
                        OFFSET   0.000000  19.566000   0.000000
                    }
                }
            }
            JOINT LeftCollar
            {
                OFFSET   3.911900  19.017000  -0.467062
                CHANNELS 3 Zrotation Xrotation Yrotation
                JOINT LeftShoulder
                {
                    OFFSET  10.383700   0.000000   0.000000
                    CHANNELS 3 Zrotation Xrotation Yrotation
                    JOINT LeftElbow
                    {
                        OFFSET  26.662100   0.001193   0.000835
                        CHANNELS 3 Zrotation Xrotation Yrotation
                        JOINT LeftWrist
                        {
                            OFFSET  28.869000  -0.000058  -0.000075
                            CHANNELS 3 Zrotation Xrotation Yrotation
                            JOINT LeftFinger0
                            {
                                OFFSET   2.044660  -2.323460   3.252850
                                CHANNELS 3 Zrotation Xrotation Yrotation
                                JOINT LeftFinger01
                                {
                                    OFFSET   3.088130   0.000000   0.000000
                                    CHANNELS 3 Zrotation Xrotation Yrotation
                                    JOINT LeftFinger02
                                    {
                                        OFFSET   2.639450   0.000000   0.000000
                                        CHANNELS 3 Zrotation Xrotation Yrotation
                                        End Site
                                        {
                                            OFFSET   2.582190   0.000000   0.000000
                                        }
                                    }
                                }
                            }
                            JOINT LeftFinger1
                            {
                                OFFSET   8.364480   0.000000   3.252850
                                CHANNELS 3 Zrotation Xrotation Yrotation
                                JOINT LeftFinger11
                                {
                                    OFFSET   4.646920   0.000000   0.000000
                                    CHANNELS 3 Zrotation Xrotation Yrotation
                                    JOINT LeftFinger12
                                    {
                                        OFFSET   2.323460   0.000000   0.000000
                                        CHANNELS 3 Zrotation Xrotation Yrotation
                                        End Site
                                        {
                                            OFFSET   2.273050   0.000000   0.000000
                                        }
                                    }
                                }
                            }
                            JOINT LeftFinger2
                            {
                                OFFSET   8.364490   0.000016   1.078090
                                CHANNELS 3 Zrotation Xrotation Yrotation
                                JOINT LeftFinger21
                                {
                                    OFFSET   5.111620   0.000000   0.000000
                                    CHANNELS 3 Zrotation Xrotation Yrotation
                                    JOINT LeftFinger22
                                    {
                                        OFFSET   2.788150   0.000012   0.000000
                                        CHANNELS 3 Zrotation Xrotation Yrotation
                                        End Site
                                        {
                                            OFFSET   2.727660   0.000000   0.000000
                                        }
                                    }
                                }
                            }
                            JOINT LeftFinger3
                            {
                                OFFSET   7.899780   0.000014  -1.078090
                                CHANNELS 3 Zrotation Xrotation Yrotation
                                JOINT LeftFinger31
                                {
                                    OFFSET   4.646930   0.000000   0.000000
                                    CHANNELS 3 Zrotation Xrotation Yrotation
                                    JOINT LeftFinger32
                                    {
                                        OFFSET   2.323470   0.000000   0.000000
                                        CHANNELS 3 Zrotation Xrotation Yrotation
                                        End Site
                                        {
                                            OFFSET   2.273050   0.000000   0.000000
                                        }
                                    }
                                }
                            }
                            JOINT LeftFinger4
                            {
                                OFFSET   7.435090   0.000000  -3.252850
                                CHANNELS 3 Zrotation Xrotation Yrotation
                                JOINT LeftFinger41
                                {
                                    OFFSET   3.717550   0.000000   0.000000
                                    CHANNELS 3 Zrotation Xrotation Yrotation
                                    JOINT LeftFinger42
                                    {
                                        OFFSET   1.858770   0.000000   0.000000
                                        CHANNELS 3 Zrotation Xrotation Yrotation
                                        End Site
                                        {
                                            OFFSET   1.818440   0.000000   0.000000
                                        }
                                    }
                                }
                            }
                        }
                    }
                }
            }
            JOINT RightCollar
            {
                OFFSET  -3.911900  19.017000  -0.467063
                CHANNELS 3 Zrotation Xrotation Yrotation
                JOINT RightShoulder
                {
                    OFFSET -10.383700   0.000023   0.000000
                    CHANNELS 3 Zrotation Xrotation Yrotation
                    JOINT RightElbow
                    {
                        OFFSET -26.662100   0.001246   0.001011
                        CHANNELS 3 Zrotation Xrotation Yrotation
                        JOINT RightWrist
                        {
                            OFFSET -28.869000  -0.000026  -0.000078
                            CHANNELS 3 Zrotation Xrotation Yrotation
                            JOINT RightFinger0
                            {
                                OFFSET  -2.044660  -2.323490   3.252850
                                CHANNELS 3 Zrotation Xrotation Yrotation
                                JOINT RightFinger01
                                {
                                    OFFSET  -3.088130   0.000000   0.000000
                                    CHANNELS 3 Zrotation Xrotation Yrotation
                                    JOINT RightFinger02
                                    {
                                        OFFSET  -2.639460   0.000000   0.000000
                                        CHANNELS 3 Zrotation Xrotation Yrotation
                                        End Site
                                        {
                                            OFFSET  -2.582190   0.000000   0.000000
                                        }
                                    }
                                }
                            }
                            JOINT RightFinger1
                            {
                                OFFSET  -8.364480   0.000000   3.252850
                                CHANNELS 3 Zrotation Xrotation Yrotation
                                JOINT RightFinger11
                                {
                                    OFFSET  -4.646920   0.000000   0.000000
                                    CHANNELS 3 Zrotation Xrotation Yrotation
                                    JOINT RightFinger12
                                    {
                                        OFFSET  -2.323470   0.000000   0.000000
                                        CHANNELS 3 Zrotation Xrotation Yrotation
                                        End Site
                                        {
                                            OFFSET  -2.273050   0.000000   0.000000
                                        }
                                    }
                                }
                            }
                            JOINT RightFinger2
                            {
                                OFFSET  -8.364480   0.000000   1.078090
                                CHANNELS 3 Zrotation Xrotation Yrotation
                                JOINT RightFinger21
                                {
                                    OFFSET  -5.111620   0.000000   0.000000
                                    CHANNELS 3 Zrotation Xrotation Yrotation
                                    JOINT RightFinger22
                                    {
                                        OFFSET  -2.788160   0.000000   0.000000
                                        CHANNELS 3 Zrotation Xrotation Yrotation
                                        End Site
                                        {
                                            OFFSET  -2.727660   0.000000   0.000000
                                        }
                                    }
                                }
                            }
                            JOINT RightFinger3
                            {
                                OFFSET  -7.899780   0.000000  -1.078090
                                CHANNELS 3 Zrotation Xrotation Yrotation
                                JOINT RightFinger31
                                {
                                    OFFSET  -4.646930   0.000000   0.000000
                                    CHANNELS 3 Zrotation Xrotation Yrotation
                                    JOINT RightFinger32
                                    {
                                        OFFSET  -2.323470   0.000000   0.000000
                                        CHANNELS 3 Zrotation Xrotation Yrotation
                                        End Site
                                        {
                                            OFFSET  -2.273050   0.000000   0.000000
                                        }
                                    }
                                }
                            }
                            JOINT RightFinger4
                            {
                                OFFSET  -7.435090   0.000000  -3.252850
                                CHANNELS 3 Zrotation Xrotation Yrotation
                                JOINT RightFinger41
                                {
                                    OFFSET  -3.717550   0.000000   0.000000
                                    CHANNELS 3 Zrotation Xrotation Yrotation
                                    JOINT RightFinger42
                                    {
                                        OFFSET  -1.858760   0.000000   0.000000
                                        CHANNELS 3 Zrotation Xrotation Yrotation
                                        End Site
                                        {
                                            OFFSET  -1.818440   0.000000   0.000000
                                        }
                                    }
                                }
                            }
                        }
                    }
                }
            }
        }
    }
    JOINT LeftHip
    {
        OFFSET   9.783010   0.000000   0.000000
        CHANNELS 3 Zrotation Xrotation Yrotation
        JOINT LeftKnee
        {
            OFFSET   0.000073 -41.789100   0.001749
            CHANNELS 3 Zrotation Xrotation Yrotation
            JOINT LeftAnkle
            {
                OFFSET   0.000111 -41.133200  -0.000179
                CHANNELS 3 Zrotation Xrotation Yrotation
                JOINT LeftToe
                {
                    OFFSET   0.000000  -6.358960  14.674500
                    CHANNELS 3 Zrotation Xrotation Yrotation
                    End Site
                    {
                        OFFSET   0.000000   0.000000   3.913200
                    }
                }
            }
        }
    }
    JOINT RightHip
    {
        OFFSET  -9.783010   0.000000   0.000000
        CHANNELS 3 Zrotation Xrotation Yrotation
        JOINT RightKnee
        {
            OFFSET   0.000424 -41.789200   0.005205
            CHANNELS 3 Zrotation Xrotation Yrotation
            JOINT RightAnkle
            {
                OFFSET   0.000000 -41.133200  -0.000155
                CHANNELS 3 Zrotation Xrotation Yrotation
                JOINT RightToe
                {
                    OFFSET   0.000000  -6.358960  14.674500
                    CHANNELS 3 Zrotation Xrotation Yrotation
                    End Site
                    {
                        OFFSET   0.000000   0.000000   3.913200
                    }
                }
            }
        }
    }
}
MOTION
Frames: 4
Frame Time:   0.016667
 -0.380613  89.577000   0.340636  -2.348260  -9.611020  -0.211278   0.748005   5.159520   0.829789   1.429320  10.329000   1.601380   0.394653  -0.760616  -0.001423   0.648755  -1.542430   1.015930  -5.533700  -0.863504   0.278567 -74.230600  19.908600   1.003360  -2.895390  -8.664780 -14.528400  13.812000 -10.479600  -4.681990  35.387500  23.096300 -59.332000 -29.341200  -0.003037  -0.001625  -9.670600  -0.000740  -0.003982 -23.413400   4.126680  -9.435680 -19.435100  -0.000368   0.001454 -13.604600  -0.003841   0.000689 -25.334500  -0.254134   0.524085 -25.335700   0.000933   0.001062 -16.873600  -0.002650   0.000000 -22.144100  -1.321370   3.243810 -22.181800   0.004446  -0.000000 -14.773100   0.002849   0.000807 -30.974400  -1.803970   3.002510 -46.532900   0.003055   0.003839 -30.990900   0.000294   0.003260  10.850300  -0.170521   6.092310  70.239100  11.807200  -6.710950  -2.119960  -5.488120  15.449000 -12.034200  -8.181060   3.423110 -41.655100  25.689600  62.042000  19.529400  -0.008253  -0.010208   4.764710  -0.003463  -0.007751  26.595300   7.922980  15.386100  22.636400   0.001927  -0.003383  15.857100   0.000679  -0.002668  28.046900   2.603650   4.871220  33.023600  -0.006244  -0.001730  22.004600   0.010890   0.012195  28.259000   2.622460   4.861220  34.764500   0.001688   0.002027  23.153200   0.001864   0.000801  25.917300   1.818850   3.742570  38.964300  -0.005186  -0.000431  25.950200   0.000666  -0.000645   2.186700  11.211500   4.601960   1.010670   0.140415   5.315680  -1.116220  -2.439200   1.836810  -0.000000   0.000000   0.000000   3.592070  10.072900   1.808930  -1.468700   3.086080 -11.239300   0.115829  -4.382400  -1.813690  -0.000000   0.000000   0.000000
 -0.380547  89.577000   0.340383  -2.350690  -9.628520  -0.204333   0.750770   5.180410   0.815919   1.435920  10.370700   1.573010   0.404309  -0.760732  -0.001410   0.664524  -1.542430   1.050900  -5.540080  -0.875231   0.295004 -74.164600  20.163100   0.905942  -2.906810  -8.509650 -14.548100  13.747700 -10.308800  -4.729760  35.382300  23.102000 -59.298000 -29.373300  -0.003050  -0.001625  -9.686660  -0.000744  -0.003994 -23.390700   4.116470  -9.422730 -19.415400  -0.000356   0.001457 -13.590900  -0.003843   0.000693 -25.306000  -0.252524   0.526472 -25.307100   0.000940   0.001063 -16.854500  -0.002656  -0.000000 -22.125700  -1.309600   3.218010 -22.162800   0.004465   0.000000 -14.760500   0.002851   0.000850 -30.949300  -1.788030   2.978990 -46.494200   0.003091   0.003871 -30.965100   0.000302   0.003290  10.847100  -0.187264   6.123470  70.225500  11.828400  -6.700610  -2.119790  -5.489010  15.448400 -12.041200  -8.181270   3.423120 -41.643400  25.690200  62.036900  19.551900  -0.008264  -0.010211   4.775950  -0.003466  -0.007757  26.599400   7.922980  15.386100  22.640100   0.001921  -0.003382  15.857000   0.000676  -0.002664  28.046900   2.603470   4.871020  33.030100  -0.006243  -0.001732  22.004600   0.010893   0.012194  28.259000   2.622260   4.861030  34.794000   0.001688   0.002025  23.172900   0.001861   0.000798  25.924400   1.818980   3.742690  38.975100  -0.005186  -0.000434  25.957400   0.000661  -0.000645   2.191710  11.256800   4.603050   1.011150   0.081834   5.316350  -1.112990  -2.411400   1.832190  -0.000000   0.000000   0.000000   3.595980  10.093500   1.804590  -1.469290   3.082970 -11.239600   0.115416  -4.382330  -1.821560  -0.000000   0.000000   0.000000
 -0.380481  89.577000   0.340131  -2.355140  -9.659660  -0.193600   0.755472   5.215240   0.793834   1.447060  10.440100   1.527780   0.420587  -0.760848  -0.001380   0.691168  -1.542410   1.110710  -5.553330  -0.893613   0.317387 -74.073400  20.551500   0.734148  -2.901810  -8.283420 -14.580500  13.663700 -10.029400  -4.795670  35.370600  23.105700 -59.215800 -29.439600  -0.003078  -0.001626  -9.719790  -0.000753  -0.004017 -23.349100   4.098630  -9.401020 -19.379500  -0.000318   0.001467 -13.565700  -0.003850   0.000702 -25.254800  -0.250913   0.532128 -25.255900   0.000955   0.001067 -16.820400  -0.002672   0.000000 -22.082000  -1.288380   3.172950 -22.118000   0.004510  -0.000000 -14.730600   0.002867   0.000893 -30.902800  -1.759980   2.937740 -46.422400   0.003178   0.003952 -30.917300   0.000321   0.003365  10.843000  -0.216260   6.173450  70.204700  11.868100  -6.683040  -2.118400  -5.495190  15.445600 -12.049000  -8.181490   3.423170 -41.624200  25.692400  62.029700  19.587000  -0.008276  -0.010214   4.793510  -0.003469  -0.007762  26.606600   7.922980  15.386100  22.646000   0.001915  -0.003379  15.856900   0.000669  -0.002659  28.046700   2.603280   4.870830  33.039900  -0.006239  -0.001735  22.004600   0.010899   0.012192  28.259000   2.622060   4.860840  34.836500   0.001690   0.002016  23.201200   0.001855   0.000792  25.936300   1.819190   3.742810  38.993100  -0.005188  -0.000442  25.969400   0.000657  -0.000646   2.200800  11.326900   4.604530   1.011870   0.000731   5.317140  -1.110150  -2.375010   1.824410  -0.000000   0.000000  -0.000000   3.603670  10.132000   1.796720  -1.470880   3.074520 -11.239900   0.115005  -4.382230  -1.829430  -0.000000   0.000000  -0.000000
 -0.383704  89.577000   0.340164  -2.359330  -9.688230  -0.186499   0.759432   5.243060   0.778348   1.456160  10.495600   1.495980   0.434369  -0.760411  -0.001337   0.713790  -1.541540   1.161100  -5.568420  -0.906538   0.324734 -74.027900  20.792900   0.579185  -2.874660  -8.176350 -14.603800  13.644500  -9.799460  -4.821060  35.363300  23.096500 -59.089400 -29.506400  -0.003107  -0.001696  -9.753190  -0.000761  -0.004045 -23.295900   4.078350  -9.378960 -19.334100  -0.000253   0.001480 -13.533800  -0.003864   0.000713 -25.200700  -0.256554   0.541045 -25.201900   0.000972   0.001074 -16.784500  -0.002695   0.000000 -22.015400  -1.267440   3.131750 -22.050200   0.004578   0.000084 -14.685500   0.002912   0.000893 -30.842900  -1.733590   2.899840 -46.329700   0.003307   0.004073 -30.855600   0.000351   0.003478  10.842400  -0.242704   6.208790  70.190300  11.911700  -6.669060  -2.110550  -5.516340  15.438700 -12.049300  -8.180030   3.427170 -41.614900  25.699600  62.027700  19.610200  -0.008274  -0.010202   4.805070  -0.003467  -0.007753  26.610700   7.926550  15.391000  22.650000   0.001916  -0.003373  15.857000   0.000662  -0.002656  28.046500   2.603330   4.871310  33.044200  -0.006231  -0.001739  22.006400   0.010904   0.012190  28.260200   2.622110   4.861310  34.852300   0.001695   0.002000  23.211700   0.001846   0.000782  25.944400   1.819400   3.742510  39.005400  -0.005195  -0.000454  25.977600   0.000658  -0.000649   2.209410  11.371600   4.604970   1.012380  -0.030772   5.317250  -1.111260  -2.364970   1.817760  -0.000000   0.000000  -0.000000   3.611400  10.171500   1.789660  -1.473160   3.059950 -11.239900   0.115085  -4.382220  -1.828010   0.000000   0.000000  -0.000000
